<svg xmlns="http://www.w3.org/2000/svg" xmlns:xlink="http://www.w3.org/1999/xlink" width="36" height="36" viewBox="0 0 36 36"><defs><linearGradient id="a" x1="0.5" x2="0.5" y2="1" gradientUnits="objectBoundingBox"><stop offset="0" stop-color="#7ca9ff"/><stop offset="0.477" stop-color="#3c6fd1"/><stop offset="1" stop-color="#3cd18a"/></linearGradient></defs><g transform="translate(-353 -344)"><g transform="translate(331 335)"><circle cx="18" cy="18" r="18" transform="translate(22 9)" fill="#fff"/></g><path d="M7,0A7,7,0,0,0,0,7c0,4.17,4.42,9.92,6.24,12.11a.993.993,0,0,0,1.53,0C9.58,16.92,14,11.17,14,7A7,7,0,0,0,7,0ZM7,9.5a2.5,2.5,0,1,1,1.768-.732A2.5,2.5,0,0,1,7,9.5Z" transform="translate(364 352)" fill="url(#a)"/></g></svg>