<svg width="18" height="10" viewBox="0 0 18 10" fill="none" xmlns="http://www.w3.org/2000/svg">
<path fill-rule="evenodd" clip-rule="evenodd" d="M0.600098 1.40001C0.600098 1.08175 0.726526 0.776528 0.951569 0.551484C1.17661 0.326441 1.48184 0.200012 1.8001 0.200012H16.2001C16.5184 0.200012 16.8236 0.326441 17.0486 0.551484C17.2737 0.776528 17.4001 1.08175 17.4001 1.40001C17.4001 1.71827 17.2737 2.0235 17.0486 2.24854C16.8236 2.47358 16.5184 2.60001 16.2001 2.60001H1.8001C1.48184 2.60001 1.17661 2.47358 0.951569 2.24854C0.726526 2.0235 0.600098 1.71827 0.600098 1.40001ZM0.600098 8.60001C0.600098 8.28175 0.726526 7.97653 0.951569 7.75148C1.17661 7.52644 1.48184 7.40001 1.8001 7.40001H16.2001C16.5184 7.40001 16.8236 7.52644 17.0486 7.75148C17.2737 7.97653 17.4001 8.28175 17.4001 8.60001C17.4001 8.91827 17.2737 9.2235 17.0486 9.44854C16.8236 9.67358 16.5184 9.80001 16.2001 9.80001H1.8001C1.48184 9.80001 1.17661 9.67358 0.951569 9.44854C0.726526 9.2235 0.600098 8.91827 0.600098 8.60001Z" fill="#363B64"/>
</svg>
