<svg width="11" height="14" viewBox="0 0 11 14" fill="none" xmlns="http://www.w3.org/2000/svg">
<path d="M5.50008 0.333344C2.75883 0.333344 0.541748 2.42001 0.541748 5.00001C0.541748 7.78001 3.67258 11.6133 4.96175 13.0733C5.24508 13.3933 5.76217 13.3933 6.0455 13.0733C7.32758 11.6133 10.4584 7.78001 10.4584 5.00001C10.4584 2.42001 8.24133 0.333344 5.50008 0.333344ZM5.50008 6.66668C5.03043 6.66668 4.58001 6.49108 4.24791 6.17852C3.91582 5.86596 3.72925 5.44204 3.72925 5.00001C3.72925 4.55798 3.91582 4.13406 4.24791 3.8215C4.58001 3.50894 5.03043 3.33334 5.50008 3.33334C5.96974 3.33334 6.42015 3.50894 6.75225 3.8215C7.08435 4.13406 7.27092 4.55798 7.27092 5.00001C7.27092 5.44204 7.08435 5.86596 6.75225 6.17852C6.42015 6.49108 5.96974 6.66668 5.50008 6.66668Z" fill="white"/>
</svg>
